<svg width="18" height="19" viewBox="0 0 18 19" fill="#0177FD" xmlns="http://www.w3.org/2000/svg">
<path d="M15.6059 14.0425C15.6059 14.3994 15.3165 14.6887 14.9596 14.6887H3.08958C2.73268 14.6887 2.44336 14.3994 2.44336 14.0425C2.44336 13.6856 2.73268 13.3962 3.08958 13.3962H3.10148V8.89272C3.10148 5.66937 5.75373 3.0567 9.02461 3.0567C12.2955 3.0567 14.9477 5.66937 14.9477 8.89272V13.3962H14.9596C15.3165 13.3962 15.6059 13.6856 15.6059 14.0425ZM4.41773 13.3962H13.6315V8.89272C13.6315 6.38345 11.5689 4.34914 9.02461 4.34914C6.4803 4.34914 4.41773 6.38345 4.41773 8.89272V13.3962ZM7.54459 16.0406C7.36556 15.6786 7.70669 15.3349 8.11055 15.3349H9.93867C10.3425 15.3349 10.6837 15.6786 10.5046 16.0406C10.4253 16.201 10.3188 16.3488 10.188 16.4773C9.87947 16.7802 9.46097 16.9505 9.02461 16.9505C8.58825 16.9505 8.16975 16.7802 7.8612 16.4773C7.7304 16.3488 7.62389 16.201 7.54459 16.0406Z" fill="#C1C1C1"/>
</svg>
