<svg width="42" height="41" viewBox="0 0 42 41" fill="none" xmlns="http://www.w3.org/2000/svg">
<circle cx="20.9922" cy="20.3647" r="20.1094" fill="#EFECFD"/>
<path d="M11.8516 15.6119C11.8516 14.8042 12.5063 14.1494 13.3141 14.1494H14.7766C15.5843 14.1494 16.2391 14.8042 16.2391 15.6119V17.0744C16.2391 17.8821 15.5843 18.5369 14.7766 18.5369H13.3141C12.5063 18.5369 11.8516 17.8821 11.8516 17.0744V15.6119Z" fill="#7468E4"/>
<path d="M11.8516 22.9244C11.8516 22.1167 12.5063 21.4619 13.3141 21.4619H14.7766C15.5843 21.4619 16.2391 22.1167 16.2391 22.9244V24.3869C16.2391 25.1946 15.5843 25.8494 14.7766 25.8494H13.3141C12.5063 25.8494 11.8516 25.1946 11.8516 24.3869V22.9244Z" fill="#7468E4"/>
<path d="M26.4766 17.8057C25.6688 17.8057 25.0141 18.4604 25.0141 19.2682V20.7307C25.0141 21.5384 25.6688 22.1932 26.4766 22.1932H27.9391C28.7468 22.1932 29.4016 21.5384 29.4016 20.7307V19.2682C29.4016 18.4604 28.7468 17.8057 27.9391 17.8057H26.4766Z" fill="#7468E4"/>
<path d="M18.4344 15.6118C18.0305 15.6118 17.7031 15.9392 17.7031 16.3431C17.7031 16.7469 18.0305 17.0743 18.4344 17.0743H19.1656C19.5695 17.0743 19.8969 17.4017 19.8969 17.8056V22.1931C19.8969 22.5969 19.5695 22.9243 19.1656 22.9243H18.4344C18.0305 22.9243 17.7031 23.2517 17.7031 23.6556C17.7031 24.0594 18.0305 24.3868 18.4344 24.3868H19.1656C20.3772 24.3868 21.3594 23.4046 21.3594 22.1931V20.7306H22.8219C23.2257 20.7306 23.5531 20.4032 23.5531 19.9993C23.5531 19.5955 23.2257 19.2681 22.8219 19.2681H21.3594V17.8056C21.3594 16.594 20.3772 15.6118 19.1656 15.6118H18.4344Z" fill="#7468E4"/>
</svg>
