<svg width="42" height="41" viewBox="0 0 42 41" fill="none" xmlns="http://www.w3.org/2000/svg">
<circle cx="21.0312" cy="20.3647" r="20.1094" fill="#E5F7ED"/>
<path d="M19.2023 25.2433C19.2023 26.051 18.5476 26.7058 17.7398 26.7058C16.9321 26.7058 16.2773 26.051 16.2773 25.2433C16.2773 24.4355 16.9321 23.7808 17.7398 23.7808C18.5476 23.7808 19.2023 24.4355 19.2023 25.2433Z" fill="#22B573"/>
<path d="M27.7359 14.4639C28.0354 14.7349 28.0585 15.1973 27.7876 15.4968L26.0562 17.4104C25.9255 17.5549 25.931 17.7765 26.0688 17.9142L27.0311 18.8766C27.3167 19.1622 27.3167 19.6252 27.0311 19.9107C26.7456 20.1963 26.2826 20.1963 25.997 19.9107L25.1122 19.0259C24.9643 18.8781 24.7228 18.8841 24.5825 19.0392L20.8407 23.1749C20.5697 23.4744 20.1073 23.4975 19.8078 23.2265C19.5084 22.9556 19.4852 22.4932 19.7562 22.1937L26.7031 14.5156C26.974 14.2161 27.4364 14.193 27.7359 14.4639Z" fill="#22B573"/>
<path d="M13.5657 21.0703C13.8513 20.7848 14.3143 20.7848 14.5999 21.0703L15.6968 22.1672C15.9823 22.4528 15.9823 22.9158 15.6968 23.2013C15.4112 23.4869 14.9482 23.4869 14.6626 23.2013L13.5657 22.1045C13.2802 21.8189 13.2802 21.3559 13.5657 21.0703Z" fill="#22B573"/>
<path d="M14.3854 18.9649L16.7046 21.2841C17.2757 21.8552 18.2017 21.8552 18.7729 21.2841L22.5546 17.5024C23.1257 16.9312 23.1257 16.0052 22.5546 15.4341L20.2354 13.1149C19.6642 12.5437 18.7382 12.5437 18.1671 13.1149L14.3854 16.8966C13.8142 17.4677 13.8142 18.3937 14.3854 18.9649Z" fill="#22B573"/>
</svg>
