
<svg width="86" height="23" viewBox="0 0 86 23" fill="none" xmlns="http://www.w3.org/2000/svg">
<path d="M35.3227 15.6759C34.5583 15.6759 33.8563 15.4965 33.2167 15.1377C32.5771 14.7789 32.0701 14.2836 31.6957 13.6518C31.3213 13.0122 31.1341 12.2907 31.1341 11.4873C31.1341 10.6917 31.3213 9.97796 31.6957 9.34616C32.0701 8.70656 32.5771 8.20736 33.2167 7.84856C33.8563 7.48976 34.5583 7.31036 35.3227 7.31036C36.0949 7.31036 36.7969 7.48976 37.4287 7.84856C38.0683 8.20736 38.5714 8.70656 38.938 9.34616C39.3124 9.97796 39.4996 10.6917 39.4996 11.4873C39.4996 12.2907 39.3124 13.0122 38.938 13.6518C38.5714 14.2836 38.0683 14.7789 37.4287 15.1377C36.7891 15.4965 36.0871 15.6759 35.3227 15.6759ZM35.3227 14.2134C35.8141 14.2134 36.247 14.1042 36.6214 13.8858C36.9958 13.6596 37.2883 13.3398 37.4989 12.9264C37.7095 12.513 37.8148 12.0333 37.8148 11.4873C37.8148 10.9413 37.7095 10.4655 37.4989 10.0599C37.2883 9.64646 36.9958 9.33056 36.6214 9.11216C36.247 8.89376 35.8141 8.78456 35.3227 8.78456C34.8313 8.78456 34.3945 8.89376 34.0123 9.11216C33.6379 9.33056 33.3454 9.64646 33.1348 10.0599C32.9242 10.4655 32.8189 10.9413 32.8189 11.4873C32.8189 12.0333 32.9242 12.513 33.1348 12.9264C33.3454 13.3398 33.6379 13.6596 34.0123 13.8858C34.3945 14.1042 34.8313 14.2134 35.3227 14.2134ZM42.3562 10.0482C42.5668 9.75176 42.8554 9.50606 43.222 9.31106C43.5964 9.10826 44.0215 9.00686 44.4973 9.00686C45.0511 9.00686 45.5503 9.14336 45.9949 9.41636C46.4473 9.68936 46.8022 10.0794 47.0596 10.5864C47.3248 11.0856 47.4574 11.6667 47.4574 12.3297C47.4574 12.9927 47.3248 13.5816 47.0596 14.0964C46.8022 14.6034 46.4473 14.9973 45.9949 15.2781C45.5503 15.5589 45.0511 15.6993 44.4973 15.6993C44.0215 15.6993 43.6003 15.6018 43.2337 15.4068C42.8749 15.2118 42.5824 14.9661 42.3562 14.6697V18.6828H40.7182V9.11216H42.3562V10.0482ZM45.7843 12.3297C45.7843 11.9397 45.7024 11.6043 45.5386 11.3235C45.3826 11.0349 45.172 10.8165 44.9068 10.6683C44.6494 10.5201 44.3686 10.446 44.0644 10.446C43.768 10.446 43.4872 10.524 43.222 10.68C42.9646 10.8282 42.754 11.0466 42.5902 11.3352C42.4342 11.6238 42.3562 11.9631 42.3562 12.3531C42.3562 12.7431 42.4342 13.0824 42.5902 13.371C42.754 13.6596 42.9646 13.8819 43.222 14.0379C43.4872 14.1861 43.768 14.2602 44.0644 14.2602C44.3686 14.2602 44.6494 14.1822 44.9068 14.0262C45.172 13.8702 45.3826 13.6479 45.5386 13.3593C45.7024 13.0707 45.7843 12.7275 45.7843 12.3297ZM54.6732 12.2127C54.6732 12.4467 54.6576 12.6573 54.6264 12.8445H49.8879C49.9269 13.3125 50.0907 13.6791 50.3793 13.9443C50.6679 14.2095 51.0228 14.3421 51.444 14.3421C52.0524 14.3421 52.4853 14.0808 52.7427 13.5582H54.5094C54.3222 14.1822 53.9634 14.697 53.433 15.1026C52.9026 15.5004 52.2513 15.6993 51.4791 15.6993C50.8551 15.6993 50.2935 15.5628 49.7943 15.2898C49.3029 15.009 48.9168 14.6151 48.636 14.1081C48.363 13.6011 48.2265 13.0161 48.2265 12.3531C48.2265 11.6823 48.363 11.0934 48.636 10.5864C48.909 10.0794 49.2912 9.68936 49.7826 9.41636C50.274 9.14336 50.8395 9.00686 51.4791 9.00686C52.0953 9.00686 52.6452 9.13946 53.1288 9.40466C53.6202 9.66986 53.9985 10.0482 54.2637 10.5396C54.5367 11.0232 54.6732 11.5809 54.6732 12.2127ZM52.9767 11.7447C52.9689 11.3235 52.8168 10.9881 52.5204 10.7385C52.224 10.4811 51.8613 10.3524 51.4323 10.3524C51.0267 10.3524 50.6835 10.4772 50.4027 10.7268C50.1297 10.9686 49.962 11.3079 49.8996 11.7447H52.9767ZM59.4607 9.01856C60.2329 9.01856 60.8569 9.26426 61.3327 9.75566C61.8085 10.2393 62.0464 10.9179 62.0464 11.7915V15.594H60.4084V12.0138C60.4084 11.499 60.2797 11.1051 60.0223 10.8321C59.7649 10.5513 59.4139 10.4109 58.9693 10.4109C58.5169 10.4109 58.1581 10.5513 57.8929 10.8321C57.6355 11.1051 57.5068 11.499 57.5068 12.0138V15.594H55.8688V9.11216H57.5068V9.91946C57.7252 9.63866 58.0021 9.42026 58.3375 9.26426C58.6807 9.10046 59.0551 9.01856 59.4607 9.01856ZM69.5594 9.95456C69.5594 10.3914 69.4541 10.8009 69.2435 11.1831C69.0407 11.5653 68.717 11.8734 68.2724 12.1074C67.8356 12.3414 67.2818 12.4584 66.611 12.4584H65.2421V15.594H63.6041V7.42736H66.611C67.2428 7.42736 67.781 7.53656 68.2256 7.75496C68.6702 7.97336 69.0017 8.27366 69.2201 8.65586C69.4463 9.03806 69.5594 9.47096 69.5594 9.95456ZM66.5408 11.1363C66.9932 11.1363 67.3286 11.0349 67.547 10.8321C67.7654 10.6215 67.8746 10.329 67.8746 9.95456C67.8746 9.15896 67.43 8.76116 66.5408 8.76116H65.2421V11.1363H66.5408ZM70.3011 12.3297C70.3011 11.6745 70.4298 11.0934 70.6872 10.5864C70.9524 10.0794 71.3073 9.68936 71.7519 9.41636C72.2043 9.14336 72.7074 9.00686 73.2612 9.00686C73.7448 9.00686 74.166 9.10436 74.5248 9.29936C74.8914 9.49436 75.1839 9.74006 75.4023 10.0365V9.11216H77.052V15.594H75.4023V14.6463C75.1917 14.9505 74.8992 15.204 74.5248 15.4068C74.1582 15.6018 73.7331 15.6993 73.2495 15.6993C72.7035 15.6993 72.2043 15.5589 71.7519 15.2781C71.3073 14.9973 70.9524 14.6034 70.6872 14.0964C70.4298 13.5816 70.3011 12.9927 70.3011 12.3297ZM75.4023 12.3531C75.4023 11.9553 75.3243 11.616 75.1683 11.3352C75.0123 11.0466 74.8017 10.8282 74.5365 10.68C74.2713 10.524 73.9866 10.446 73.6824 10.446C73.3782 10.446 73.0974 10.5201 72.84 10.6683C72.5826 10.8165 72.372 11.0349 72.2082 11.3235C72.0522 11.6043 71.9742 11.9397 71.9742 12.3297C71.9742 12.7197 72.0522 13.0629 72.2082 13.3593C72.372 13.6479 72.5826 13.8702 72.84 14.0262C73.1052 14.1822 73.386 14.2602 73.6824 14.2602C73.9866 14.2602 74.2713 14.1861 74.5365 14.0379C74.8017 13.8819 75.0123 13.6635 75.1683 13.3827C75.3243 13.0941 75.4023 12.7509 75.4023 12.3531ZM84.8528 9.11216L80.8397 18.6594H79.0964L80.5004 15.4302L77.903 9.11216H79.7399L81.413 13.6401L83.1095 9.11216H84.8528Z" fill="#2F2F32"/>
<path d="M6.46436 19.1118V13.95L10.9809 16.2083L15.4974 13.95V8.14303L20.014 5.56198V16.5309L10.9809 21.6927L6.46436 19.1118Z" fill="#0177FD"/>
<path d="M10.9804 5.56225L6.46381 8.14313V13.9501L1.94727 16.531V5.56225L10.9804 0.400482L15.4969 2.98136V8.14313L10.9804 5.56225Z" fill="#0177FD"/>
</svg>
