<svg width="41" height="41" viewBox="0 0 41 41" fill="none" xmlns="http://www.w3.org/2000/svg">
<circle cx="20.5859" cy="20.3647" r="20.1094" fill="#E4F8FB"/>
<path d="M25.3383 16.3433H13.6383C12.8306 16.3433 12.1758 16.998 12.1758 17.8058V26.5808C12.1758 27.3885 12.8306 28.0433 13.6383 28.0433H19.8539C20.0558 28.0433 20.2195 27.8796 20.2195 27.6776V24.387C20.2195 23.5793 20.8743 22.9245 21.682 22.9245H26.4352C26.6371 22.9245 26.8008 22.7608 26.8008 22.5589V17.8058C26.8008 16.998 26.146 16.3433 25.3383 16.3433Z" fill="#51D5EC"/>
<path d="M21.6836 25.1185C21.6836 24.7146 22.011 24.3872 22.4148 24.3872H27.5336C27.9375 24.3872 28.2648 24.7146 28.2648 25.1185V28.7747C28.2648 29.1786 27.9375 29.506 27.5336 29.506H22.4148C22.011 29.506 21.6836 29.1786 21.6836 28.7747V25.1185Z" fill="#51D5EC"/>
</svg>
