<svg width="41" height="41" viewBox="0 0 41 41" fill="none" xmlns="http://www.w3.org/2000/svg">
<circle cx="20.2383" cy="20.3647" r="20.1094" fill="#FDF1E2"/>
<path fill-rule="evenodd" clip-rule="evenodd" d="M19.8711 27.3115C23.9097 27.3115 27.1836 24.0376 27.1836 19.999C27.1836 15.9604 23.9097 12.6865 19.8711 12.6865C15.8325 12.6865 12.5586 15.9604 12.5586 19.999C12.5586 24.0376 15.8325 27.3115 19.8711 27.3115ZM20.6023 16.3428C20.6023 15.9389 20.275 15.6115 19.8711 15.6115C19.4672 15.6115 19.1398 15.9389 19.1398 16.3428V19.999C19.1398 20.193 19.2169 20.379 19.354 20.5161L21.1821 22.3442C21.4677 22.6298 21.9307 22.6298 22.2163 22.3442C22.5019 22.0586 22.5019 21.5956 22.2163 21.3101L20.6023 19.6961V16.3428Z" fill="#FFB648"/>
</svg>
